<?xml version="1.0" encoding="utf-8"?>
<!-- Generator: Adobe Illustrator 27.8.0, SVG Export Plug-In . SVG Version: 6.00 Build 0)  -->
<svg version="1.1" xmlns="http://www.w3.org/2000/svg" xmlns:xlink="http://www.w3.org/1999/xlink" x="0px" y="0px"
	 viewBox="0 0 600 298" style="enable-background:new 0 0 600 298;" xml:space="preserve">
<style type="text/css">
	.st0{display:none;}
	.st1{display:inline;}
	.st2{fill:#FFFFFF;stroke:#000000;stroke-width:4;stroke-miterlimit:10;}
</style>
<g id="Capa_1" class="st0">
	<g transform="translate(0.000000,298.000000) scale(0.100000,-0.100000)" class="st1">
		<path d="M413,1924l-93-94v-145c0-90,4-145,10-145s10-7,10-15c0-9,36-51,80-95s80-82,80-85s-25-5-55-5h-55l-75-75l-75-75v-85v-85
			h630h630V884c0-104,3-139,14-150c22-21,3050-21,3072,0c11,11,14,46,14,150v136h320c207,0,320-4,320-10s57-10,150-10h150v320v320
			h85h85l65,65c36,35,65,71,65,80c0,8,5,15,10,15c6,0,10,9,10,20s5,20,10,20c6,0,10,9,10,20s5,20,10,20c24,0,6,34-45,85l-55,55
			l-2642-1l-2643-1L413,1924z M2088,1622c172-344,219-444,228-492l7-31l-79,3l-78,3l-45,105c-25,58-99,210-164,337l-117,232l40,81
			c22,44,42,80,45,80C1927,1940,2001,1797,2088,1622z M4400,1906c0-8-16-48-36-90l-36-76h-182h-182l-31-32c-46-48-53-76-53-214v-124
			l41-45l42-45h138h139v60v60h-60h-60v80v80h141h140l-3-174l-3-174l-50-55l-50-55l-185-1l-185-1l-62,51c-34,28-76,71-93,97l-30,45
			v204c0,222,0,222,63,310c16,23,47,54,68,68c38,25,40,25,256,25c124,0,225,5,233,10C4382,1924,4400,1922,4400,1906z M5780,1907
			c0-2-19-39-43-83l-42-79l-308-3l-307-2v80v80l338,3c185,1,343,3,350,5C5774,1909,5780,1909,5780,1907z M1038,1823l-3-78l-214-3
			c-131-1-219-6-227-13c-7-6-16-24-19-40c-6-25-1-34,36-69l43-40h131h132l54-57c144-152,147-234,13-366l-57-57H623
			c-167,0-303,4-303,9c0,12,36,58,84,109l40,42h196h197l36,28c20,15,36,33,37,40c0,17-40,95-54,104c-6,4-73,8-149,8
			c-136,0-137,0-165,28c-32,31-113,136-130,169c-31,57-8,117,76,205l55,58h249h249L1038,1823z M1720,1894c0-3-16-40-37-80l-36-74
			l-291,2l-291,3l-3,78l-3,77h331C1571,1900,1720,1897,1720,1894z M2851,1843c84-93,89-104,89-215v-96l-60-61c-33-33-70-63-81-66
			c-11-4-19-10-17-13c54-115,107-201,162-259l30-33h-105h-104l-75,111c-41,62-92,137-112,167c-34,49-38,62-38,119v63h104
			c113,0,123,4,145,59c12,27,11,34-9,62c-38,52-69,59-265,59h-175v80v80h229h229L2851,1843z M3160,1580v-320h150h151l-3-77l-3-78
			l-227-3l-228-2v400v400h80h80V1580z M3660,1500v-400h-70h-70v400v400h70h70V1500z M4618,1748l3-148h129h130v150v150h80h80v-400
			v-401l-77,3l-78,3l-3,158l-3,157h-129h-130v-134c0-74-4-146-10-160c-9-25-14-26-80-26h-70v400v401l78-3l77-3L4618,1748z
			 M1879,1604c34-64,61-122,61-130c0-11-25-14-135-14c-124,0-134,1-128,18c5,14,105,210,120,235C1808,1731,1822,1712,1879,1604z
			 M1418,1393l-3-288l-67-3l-68-3v291v290h70h70L1418,1393z M2480,1390v-290h-70h-70v290v290h70h70V1390z M5460,1385v-295h-70h-70
			v295v295h70h70V1385z M2004,1328c16-37,26-71,23-75c-4-3-76-9-159-12l-153-6l-27-50c-15-27-27-58-27-67c-1-16-12-18-92-18
			c-50,0-89,3-87,8c2,4,36,71,76,150l72,142l172-2l172-3L2004,1328z M3974,974c35-52,66-89,68-82c3,7,3,44,1,81c-3,67,9,113,28,102
			c5-4,9-67,9-141c0-165-6-168-91-49c-31,44-63,81-69,83c-9,3-11-17-9-79c3-70,1-84-11-84s-15,23-18,137
			C3879,1109,3881,1109,3974,974z M4480,993c0-66,2-75,20-80c27-7,26-39-1-46c-18-5-21-11-16-36c5-24,3-31-8-31c-9,0-18,13-21,30
			c-6,27-11,30-43,30c-51,0-81,10-81,27c0,34,124,198,141,187C4476,1071,4480,1035,4480,993z M3764,1056c98-41,113-175,26-234
			c-29-20-44-23-88-20c-43,4-59,11-87,38c-31,30-35,40-35,85C3580,1036,3666,1097,3764,1056z M1741,1050c25-14,27-55,2-45
			c-59,24-72,27-97,21c-46-11-31-46,30-70c69-28,84-43,84-80c0-64-68-95-144-66c-33,12-36,45-3,36c59-18,84-18,101-1
			c27,28,15,48-43,71c-29,12-62,31-73,42c-19,18-20,24-8,52c7,17,20,35,29,40C1641,1063,1717,1062,1741,1050z M1943,1049
			c30-16,37-28,37-69c0-58-21-79-88-82l-57-3v-45c0-33-4-45-15-45c-12,0-16,21-18,114c-1,63,0,121,2,128
			C1811,1064,1912,1065,1943,1049z M2135,965c47-100,65-165,46-165c-6,0-20,18-31,40c-20,39-21,40-75,40c-51,0-55-2-61-27
			c-8-31-22-53-35-53s-2,40,36,140c18,47,35,93,38,103C2067,1082,2092,1059,2135,965z M2418,1031c3-20,1-22-15-16c-10,5-37,10-60,13
			c-37,3-47,0-73-26c-53-54-33-141,38-163c32-9,44-8,70,5c40,20,42,20,42-4c0-41-93-53-148-20c-89,55-94,168-9,221
			c24,15,46,19,92,17C2410,1055,2415,1053,2418,1031z M2620,1051c0-12-25-21-58-21c-58,0-73-10-70-44c3-30,5-31,56-34
			c70-4,65-26-6-30l-52-3v-40v-39h65c58,0,65-2,65-20s-7-20-80-20h-80v130v130h80C2584,1060,2620,1056,2620,1051z M2890,1040
			c17-31,3-43-29-24c-19,11-38,14-55,10c-22-5-27-12-24-34c2-22,12-30,53-45c27-10,55-23,62-29c20-16,16-62-8-92c-29-37-99-37-136,0
			c-14,14-23,27-21,29s24-3,50-12c43-16,47-16,72,0c35,23,34,55-1,63c-98,24-137,76-97,132c12,18,25,22,69,22S2881,1056,2890,1040z
			 M3120,1046c0-10-13-16-37-18l-38-3l-5-107c-3-58-8-110-13-114c-17-18-26,18-29,116l-3,105l-30,3c-43,4-57,10-50,22
			c3,6,50,10,106,10C3100,1060,3120,1057,3120,1046z M3234,1010c30-58,76-176,76-196c0-26-21-14-35,20c-8,19-18,37-23,40
			c-4,2-32,1-62-2c-50-7-54-9-62-39c-5-18-14-33-20-33c-16,0-2,72,31,154c16,39,31,79,35,89C3184,1074,3207,1061,3234,1010z
			 M3490,1046c0-8-16-16-41-20l-40-6l3-107c3-96,1-108-14-111c-16-3-18,7-18,106c0,91-3,111-16,116c-9,3-20,4-25,1
			c-11-7-49,13-49,25c0,6,42,10,100,10C3468,1060,3490,1057,3490,1046z M3550,946c0-63-3-121-6-130c-16-42-24-5-24,114
			c0,109,2,130,15,130C3547,1060,3550,1041,3550,946z M4295,930c0-110-2-125-17-128s-18,9-20,100c-3,98-4,103-25,103
			c-11,0-25,4-29,8c-13,13,38,47,66,45l25-3V930z"/>
		<path d="M4403,959c-41-53-41-63-1-55c41,8,40,7,36,56l-3,41L4403,959z"/>
		<path d="M3643,1006c-23-20-28-32-28-71s5-51,28-71c52-44,145-27,167,32c11,28-12,102-37,122C3744,1039,3675,1033,3643,1006z"/>
		<path d="M1837,1017c-3-8-3-33,0-56c5-37,8-41,35-41c50,0,68,16,68,60c0,32-4,40-19,40c-10,0-32,3-48,6
			C1852,1030,1841,1028,1837,1017z"/>
		<path d="M2052,955l-21-44l35-7c48-9,58,4,39,49c-8,19-18,38-23,41S2064,979,2052,955z"/>
		<path d="M3171,951c-11-21-17-41-14-45c10-10,83-7,83,4c0,16-33,80-42,80C3194,990,3182,973,3171,951z"/>
	</g>
</g>
<g id="Capa_2">
	<polygon class="st2" points="197.74,129.01 209.66,129.01 209.66,87.17 251.64,87.17 251.64,74.73 197.74,74.73 	"/>
	<rect x="218.73" y="96.11" class="st2" width="31.74" height="12.7"/>
	<polygon class="st2" points="248.43,128.1 260.22,128.1 281.42,87.89 274.75,74.73 	"/>
	<polygon class="st2" points="278.82,107.69 284.97,95.87 300.61,128.1 288.64,128.1 	"/>
	<path class="st2" d="M309.7,128.1h11.27V87.31c9,0,17.99,0,26.99,0c0.57,0.08,1.26,0.28,1.83,0.79c1.81,1.58,1.7,5.42-0.35,7.08
		c-0.83,0.67-1.82,0.85-2.53,0.87h-21.92l22.9,32.06h13.74c-16.07-20.1,0,0-16.47-20.4c1.31,0.17,3.32,0.27,5.59-0.39
		c5.76-1.68,9.96-7.33,10.74-13.28c1.02-7.72-4.08-13.14-4.89-13.98c-4.52-4.64-10.14-5.22-11.62-5.33H309.7V128.1z"/>
	<polygon class="st2" points="81.12,150.55 93.16,150.55 93.16,170.7 120.97,170.7 120.97,150.55 133.13,150.55 133.13,203.96 
		122.49,203.96 122.49,183.5 91.76,183.5 91.76,203.96 81.12,203.96 	"/>
	<path class="st2" d="M202.31,203.92h11.27v-40.79c9,0,17.99,0,26.99,0c0.57,0.08,1.26,0.28,1.83,0.79c1.81,1.58,1.7,5.42-0.35,7.08
		c-0.83,0.67-1.82,0.85-2.53,0.87h-21.92l22.9,32.06h13.74c-16.07-20.1,0,0-16.47-20.4c1.31,0.17,3.32,0.27,5.59-0.39
		c5.76-1.68,9.96-7.33,10.74-13.28c1.02-7.72-4.08-13.14-4.89-13.98c-4.52-4.64-10.14-5.22-11.62-5.33h-35.29V203.92z"/>
	<rect x="273.11" y="150.55" class="st2" width="13.15" height="53.37"/>
	<polyline class="st2" points="305.13,150.55 345.5,150.55 324.85,191.19 347.09,191.19 347.09,203.92 305.13,203.92 326.11,162.81 
		305.13,162.81 305.13,150.55 	"/>
	<path class="st2" d="M493.97,162.41c4.65,0.01,16.2-0.05,31.63,0v-11.85c-12.02,0-24.05,0-36.07,0c-1.52,0.28-3.8,0.94-5.93,2.64
		c-5.2,4.16-6,11.76-4.51,17.2c0.22,0.79,2.55,8.84,9.98,11.53c2.12,0.77,4.04,0.87,5.35,0.84c6.81,0,13.61,0,20.42,0
		c0.58-0.03,1.55,0.02,2.45,0.58c1.92,1.2,2.65,4.16,1.55,6.38c-0.85,1.7-2.67,2.77-4.7,2.83h-36.59v11.4c13.89,0,27.79,0,41.68,0
		c1.06-0.22,2.55-0.64,4.12-1.55c6.81-3.91,7.57-12.4,7.6-12.82c0.42-5.65-2.09-11.39-6.7-14.75c-2.93-2.14-5.95-2.76-7.6-2.96
		c-7.56,0-15.12,0-22.68,0c-0.31,0-2.66-0.05-4.06-1.93c-1.53-2.06-0.92-5,0.52-6.38C491.64,162.4,493.38,162.41,493.97,162.41z"/>
	<polygon class="st2" points="454.36,203.92 467.63,203.92 467.63,150.55 455.07,150.55 455.07,186 425.26,150.55 412.75,150.55 
		412.75,203.92 425.3,203.92 425.3,172.56 	"/>
	<g>
		<path class="st2" d="M167.06,150.62c8.75,0.07,15.72,3.03,21.12,9.34c4.77,5.58,7.06,12.06,6.42,19.42
			c-0.68,7.81-4.28,14.1-10.38,18.95c-3.21,2.56-6.88,4.21-10.92,4.97c-5.79,1.09-11.43,0.63-16.85-1.82
			c-4.91-2.21-8.77-5.64-11.62-10.19c-2.28-3.64-3.67-7.6-4.02-11.9c-0.31-3.9,0.21-7.69,1.62-11.35c1.26-3.28,3.03-6.25,5.42-8.82
			c4.28-4.6,9.52-7.41,15.76-8.28C164.92,150.76,166.24,150.7,167.06,150.62z M183.5,177.38c-0.28-5.8-2.45-10.64-7.38-13.98
			c-4.41-2.99-9.24-3.46-14.1-1.45c-6.09,2.52-9.26,7.43-10.02,13.86c-0.44,3.69,0.52,7.17,2.5,10.32c2.12,3.37,5.02,5.8,8.91,6.91
			c4.18,1.19,8.24,0.8,11.96-1.46C180.66,188.38,183.12,183.48,183.5,177.38z"/>
	</g>
	<g>
		<path class="st2" d="M377.45,150.64c8.75,0.07,15.72,3.03,21.12,9.34c4.77,5.58,7.06,12.06,6.42,19.42
			c-0.68,7.81-4.28,14.1-10.38,18.95c-3.21,2.56-6.88,4.21-10.92,4.97c-5.79,1.09-11.43,0.63-16.85-1.82
			c-4.91-2.21-8.77-5.64-11.62-10.19c-2.28-3.64-3.67-7.6-4.02-11.9c-0.31-3.9,0.21-7.69,1.62-11.35c1.26-3.28,3.03-6.25,5.42-8.82
			c4.28-4.6,9.52-7.41,15.76-8.28C375.31,150.78,376.63,150.71,377.45,150.64z M393.9,177.4c-0.28-5.8-2.45-10.64-7.38-13.98
			c-4.41-2.99-9.24-3.46-14.1-1.45c-6.09,2.52-9.26,7.43-10.02,13.86c-0.44,3.69,0.52,7.17,2.5,10.32c2.12,3.37,5.02,5.8,8.91,6.91
			c4.18,1.19,8.24,0.8,11.96-1.46C391.05,188.4,393.51,183.5,393.9,177.4z"/>
	</g>
</g>
</svg>
